<svg xmlns="http://www.w3.org/2000/svg" width="69.487" height="48.641" viewBox="0 0 69.487 48.641">
  <path id="keyboard" d="M64.538,5H8.949a6.939,6.939,0,0,0-6.914,6.949L2,46.692a6.969,6.969,0,0,0,6.949,6.949H64.538a6.969,6.969,0,0,0,6.949-6.949V11.949A6.969,6.969,0,0,0,64.538,5ZM33.269,15.423h6.949v6.949H33.269Zm0,10.423h6.949v6.949H33.269ZM22.846,15.423h6.949v6.949H22.846Zm0,10.423h6.949v6.949H22.846Zm-3.474,6.949H12.423V25.846h6.949Zm0-10.423H12.423V15.423h6.949Zm27.795,24.32H26.32a3.474,3.474,0,0,1,0-6.949H47.166a3.474,3.474,0,0,1,0,6.949Zm3.474-13.9H43.692V25.846h6.949Zm0-10.423H43.692V15.423h6.949ZM61.064,32.795H54.115V25.846h6.949Zm0-10.423H54.115V15.423h6.949Z" transform="translate(-2 -5)" fill="#fff"/>
</svg>
