<svg xmlns="http://www.w3.org/2000/svg" width="65.25" height="65.243" viewBox="0 0 65.25 65.243">
  <path id="Path_1" data-name="Path 1" d="M9.543,36.79a3.286,3.286,0,0,1-.127.3,3.453,3.453,0,0,1-3.66,1.855,3.376,3.376,0,0,1-1.711-5.762,3.414,3.414,0,0,1,2.307-.933H6.4a3.455,3.455,0,0,1,2.993,1.857,2.977,2.977,0,0,1,.155.359H23.25V30.005H18.556a3.067,3.067,0,0,1-.141.339,3.375,3.375,0,1,1-5.384-3.892,3.4,3.4,0,0,1,2.321-.946H15.4a3.456,3.456,0,0,1,3.02,1.911,3.067,3.067,0,0,1,.141.339H23.25V24.38a1.522,1.522,0,0,1,.111-.488,1.13,1.13,0,0,1,.527-.525,1.107,1.107,0,0,1,.487-.111h3.376v-4.7a3.477,3.477,0,0,1-2.217-2.709A3.375,3.375,0,0,1,28.855,12H28.9a3.363,3.363,0,0,1,1.1,6.54v4.711h4.5V9.561c-.056-.02-.114-.042-.17-.065a3.442,3.442,0,0,1-2.047-2.647A3.378,3.378,0,0,1,35.6,3h.044a3.455,3.455,0,0,1,3,1.874,3.331,3.331,0,0,1-1.9,4.653V23.255h4.5v-4.7a3.479,3.479,0,0,1-2.217-2.709A3.374,3.374,0,0,1,42.356,12H42.4a3.363,3.363,0,0,1,1.1,6.54v4.712h3.375l.251.028a1.346,1.346,0,0,1,.629.395,1.121,1.121,0,0,1,.217.451A2.348,2.348,0,0,1,48,24.38v3.375h4.7a3.356,3.356,0,0,1,3.153-2.25H55.9a3.455,3.455,0,0,1,3,1.874,3.376,3.376,0,0,1-3.64,4.819A3.483,3.483,0,0,1,52.7,30.005H48v4.466H61.717a3.373,3.373,0,0,1,.848-1.3,3.422,3.422,0,0,1,2.293-.919H64.9a3.376,3.376,0,1,1-3.186,4.535H48v4.466h4.7a3.353,3.353,0,0,1,3.153-2.25H55.9A3.458,3.458,0,0,1,58.911,40.9a3.375,3.375,0,0,1-3.65,4.8A3.483,3.483,0,0,1,52.7,43.506H48v3.376a1.36,1.36,0,0,1-.246.7,1.1,1.1,0,0,1-.391.313,1.124,1.124,0,0,1-.488.111H43.5v4.7a3.366,3.366,0,1,1-3.454.729,3.381,3.381,0,0,1,1.2-.737v-4.7h-4.5V61.713a3.365,3.365,0,1,1-3.5.769A3.392,3.392,0,0,1,34.5,61.7v-13.7H30v4.7a3.366,3.366,0,1,1-3.454.729,3.381,3.381,0,0,1,1.2-.737v-4.7H24.375a1.359,1.359,0,0,1-.7-.245,1.123,1.123,0,0,1-.424-.88V43.506H18.556a3.084,3.084,0,0,1-.141.34,3.375,3.375,0,1,1-5.37-3.907,3.408,3.408,0,0,1,2.306-.933H15.4A3.456,3.456,0,0,1,18.407,40.9a3.187,3.187,0,0,1,.15.357H23.25V36.79H9.543ZM35.619,63.759a1.126,1.126,0,1,0,.988.573,1.146,1.146,0,0,0-.958-.573Zm6.75-9a1.125,1.125,0,1,0,.991.578,1.144,1.144,0,0,0-.961-.577h-.03Zm-13.5,0a1.125,1.125,0,1,0,.991.578,1.145,1.145,0,0,0-.961-.577h-.03Zm-13.5-13.5a1.125,1.125,0,1,0,.991.578,1.147,1.147,0,0,0-.962-.578Zm40.5,0a1.125,1.125,0,1,0,.99.578,1.144,1.144,0,0,0-.961-.578ZM7.481,35.468a1.047,1.047,0,0,0-.12-.378,1.144,1.144,0,0,0-.964-.584h-.03A1.125,1.125,0,1,0,6.8,36.673a1.164,1.164,0,0,0,.683-.943A1.135,1.135,0,0,1,7.481,35.468Zm56.284.237a1,1,0,0,0,.094.4,1.125,1.125,0,1,0,2-1.02,1.143,1.143,0,0,0-.961-.578h-.03a1.189,1.189,0,0,0-1.106,1.127C63.766,35.657,63.766,35.682,63.765,35.706Zm-48.4-7.95a1.125,1.125,0,1,0,.991.578,1.147,1.147,0,0,0-.962-.578h-.029Zm40.5,0a1.125,1.125,0,1,0,.99.578,1.144,1.144,0,0,0-.961-.578Zm-13.5-13.5a1.125,1.125,0,1,0,.991.578,1.143,1.143,0,0,0-.961-.578h-.03Zm-13.5,0a1.119,1.119,0,1,0,.03,0h-.03Zm6.751-9a1.168,1.168,0,0,0-1.01,1.605,1.125,1.125,0,1,0,2-1.027,1.147,1.147,0,0,0-.962-.578h-.029Z" transform="translate(-3 -3.003)" fill="#fff"/>
</svg>
