<svg xmlns="http://www.w3.org/2000/svg" viewBox="0 0 2355.59 3324.91"><path d="M1176.35,3324.91l-962-267.06L0,653.43H2355.59L2141,3057.49l-964.64,267.42h0" transform="translate(0 0)" style="fill:#4353ad"/><path d="M1957.27,2904.4,2140.64,850H1177.79V3120.49l779.48-216.09h0" transform="translate(0 0)" style="fill:#485fb5"/><path d="M1177.79,2507.67l-1.29.33-328.42-88.68-21-235.19h-296l41.31,463,604.08,167.69,1.35-.37ZM438.34,1144.92l26.8,294.89h712.65V1144.92Zm53.11,596.87,26.43,294.89h659.91V1741.79H491.45" transform="translate(0 0)" style="fill:#ededed"/><path d="M1411.57,0h357.18V129.88H1561v26h207.8V454.59H1411.57V318.19h207.82v-26h-207.8V0ZM983,0h357.16V129.88H1132.34v26h207.79V454.59H983V318.19h207.81v-26H983V0ZM554.38,0H911.53V149.36H703.74V298.72H911.55V448.08H554.38V0" transform="translate(0 0)" style="fill:#fff"/><path d="M1862.25,1741.79l53.23-596.87h-738.7v294.89h415.53l-26.83,302h-388.7v294.89h363.13l-34.24,382.47-328.9,88.76v306.8l604.55-167.55,4.43-49.81L1855.07,1821l7.18-79.18h0" transform="translate(0 0)" style="fill:#fff"/></svg>