<svg xmlns="http://www.w3.org/2000/svg" viewBox="0 0 578.11 816"><path d="M52.61,750.46,0,160.36H578.11l-52.67,590L288.7,816,52.61,750.46" transform="translate(0 0)" style="fill:#e53d20"/><path d="M289.05,765.83l191.3-53,45-504.19H289.05V765.83" transform="translate(0 0)" style="fill:#f15123"/><path d="M289.05,427.47H193.29l-6.62-74.11H289.05V281H107.58l1.73,19.41L127.1,499.84h162V427.47" transform="translate(0 0)" style="fill:#ededed"/><path d="M289.05,615.43l-.31.09-80.61-21.77L203,536H130.33l10.14,113.64,148.25,41.15.33-.09v-75.3" transform="translate(0 0)" style="fill:#ededed"/><path d="M53.79,0H90.57V36.34h33.64V0H161V110H124.21V73.19H90.57V110H53.79V0h0" transform="translate(0 0)" style="fill:#fff"/><path d="M209.36,36.49H177V0H278.53V36.49H246.14V110H209.36V36.49h0" transform="translate(0 0)" style="fill:#fff"/><path d="M294.65,0H333l23.59,38.66L380.16,0h38.36V110H381.89V55.5l-25.3,39.12H356L330.64,55.5V110h-36V0" transform="translate(0 0)" style="fill:#fff"/><path d="M436.83,0h36.79V73.67h51.72V110H436.83V0" transform="translate(0 0)" style="fill:#fff"/><path d="M288.8,427.47v72.37h89.12l-8.4,93.87L288.8,615.49v75.3l148.37-41.12,1.09-12.23,17-190.53L457,427.47H288.8" transform="translate(0 0)" style="fill:#fff"/><path d="M288.8,281v72.37H463.62l1.45-16.27,3.3-36.69L470.1,281H288.8" transform="translate(0 0)" style="fill:#fff"/></svg>