<?xml version="1.0" encoding="UTF-8" standalone="no"?>
<svg
   xmlns:dc="http://purl.org/dc/elements/1.1/"
   xmlns:cc="http://creativecommons.org/ns#"
   xmlns:rdf="http://www.w3.org/1999/02/22-rdf-syntax-ns#"
   xmlns:svg="http://www.w3.org/2000/svg"
   xmlns="http://www.w3.org/2000/svg"
   xmlns:sodipodi="http://sodipodi.sourceforge.net/DTD/sodipodi-0.dtd"
   xmlns:inkscape="http://www.inkscape.org/namespaces/inkscape"
   version="1.1"
   id="svg2"
   xml:space="preserve"
   width="4804.9331"
   height="5294.9468"
   viewBox="0 0 4804.9331 5294.9468"
   sodipodi:docname="nodejs-seeklogo.com.eps"><metadata
     id="metadata8"><rdf:RDF><cc:Work
         rdf:about=""><dc:format>image/svg+xml</dc:format><dc:type
           rdf:resource="http://purl.org/dc/dcmitype/StillImage" /></cc:Work></rdf:RDF></metadata><defs
     id="defs6" /><sodipodi:namedview
     pagecolor="#ffffff"
     bordercolor="#666666"
     borderopacity="1"
     objecttolerance="10"
     gridtolerance="10"
     guidetolerance="10"
     inkscape:pageopacity="0"
     inkscape:pageshadow="2"
     inkscape:window-width="640"
     inkscape:window-height="480"
     id="namedview4" /><g
     id="g10"
     inkscape:groupmode="layer"
     inkscape:label="ink_ext_XXXXXX"
     transform="matrix(1.3333333,0,0,-1.3333333,0,5294.9467)"><g
       id="g12"
       transform="scale(0.1)"><path
         d="m 16392.5,39288.4 c 984.7,563.7 2267.3,566.2 3251.1,0 4949.5,-2796.7 9900.6,-5589.1 14849.3,-8387.5 930.8,-524.3 1553.4,-1560.2 1544,-2632.7 V 11441.8 c 6.9,-1116.9 -677.2,-2177.5 -1659.2,-2689.9 C 29444.4,5970.5 24513.6,3185.8 19581.2,404.402 c -1005,-574.601 -2313.3,-530.3 -3287,91.403 -1479,857.395 -2960.5,1710.495 -4439.6,2567.095 -302.3,180.2 -643,323.6 -856.4,616.6 188.6,254.3 526,286 800.1,397 617.3,196.4 1184.4,511.5 1751.5,817.3 143.4,98.1 318.5,60.5 456,-27.3 1264.7,-725.2 2518.3,-1471.4 3787.2,-2189.6 270.7,-156.3 544.8,51.2 776.2,180.2 4841.1,2736.1 9688.1,5461.8 14528.3,8198.7 179.4,86.3 278.5,276.7 264,473.2 3.3,5550.6 0.8,11102.2 1.7,16652.9 20.5,222.9 -108.5,427.8 -310.1,519.1 -4916.1,2768.6 -9829.8,5541.4 -14745.1,8310.7 -174.3,119.9 -404.4,120.2 -579,0.9 -4915.4,-2770.2 -9828.13,-5545.6 -14743.45,-8314 -200.84,-91.4 -335.63,-293 -311.72,-516.7 0.84,-5550.7 0,-11102.3 0,-16653.8 -17.46,-196.3 89.21,-382.7 267.31,-467.2 1311.67,-743.8 2625.05,-1482.3 3937.57,-2223.6 739.43,-398 1647.31,-634.5 2461.98,-329.6 718.91,257.9 1222.81,991.5 1209.11,1754.8 6.8,5518.3 -3.4,11037.4 5.1,16554.8 -17.9,245 214.4,447.4 452.6,424.3 630.3,4.3 1261.3,8.5 1891.6,-1.7 263,6 444.1,-257.8 411.6,-504.6 -2.6,-5553.2 6.7,-11106.6 -4.3,-16659.7 1.7,-1480 -606.3,-3090.4 -1975.3,-3814.6 C 9644.64,5387.4 7560.15,5572.7 5894.04,6410.4 4451.68,7130.3 3075.22,7979.9 1658.46,8751.1 673.922,9260.7 -6.80859,10325.6 0.125,11441.7 v 16826.5 c -10.3281,1094.7 637.023,2149.4 1596.805,2666 4932.44,2783.6 9864.07,5569.4 14795.57,8354.2"
         style="fill:#81cd39;fill-opacity:1;fill-rule:nonzero;stroke:none"
         id="path14" /><path
         d="m 20695.6,27632.7 c 2151.2,138.5 4454.2,82 6390.1,-977.7 1498.8,-812.2 2329.7,-2516.6 2356.1,-4181.7 -41.8,-224.6 -276.6,-348.5 -491,-333.1 -624.2,0.8 -1248.5,-8.5 -1872.6,4.2 -264.8,-10.2 -418.7,234 -451.9,468 -179.4,796.7 -613.9,1585.8 -1363.8,1970.1 -1151.1,576.3 -2485.8,547.3 -3741.1,535.3 -916.3,-48.6 -1901.7,-128 -2678.1,-666.8 -596,-408.2 -777,-1232.2 -564.3,-1895.9 200.6,-476.5 750.6,-630.2 1200.7,-771.9 2592.5,-678.1 5339.7,-610.6 7882.7,-1502.9 1052.9,-363.8 2082.8,-1071 2443.2,-2173.3 471.4,-1477.5 264.8,-3243.4 -786.4,-4429.5 -852.4,-976 -2093.9,-1507.3 -3332.2,-1795.8 -1647.3,-367.3 -3356.8,-376.7 -5029.7,-213.6 -1573.1,179.4 -3210.1,592.6 -4424.4,1664.4 -1038.5,901.7 -1545.7,2306.6 -1495.3,3662.5 12,229 240,388.7 459.4,369.9 628.5,5.1 1257.1,6.8 1885.6,-0.9 251.1,18 437.2,-199 450.1,-435.6 115.9,-759.1 401.2,-1555.8 1063.1,-2005.8 1277.5,-824.2 2880.4,-767.8 4343.1,-790.8 1211.8,53.7 2572.2,70 3561.1,870.9 521.7,456.9 676.3,1221.2 535.3,1878.8 -152.7,555.1 -733.5,813.8 -1232.2,982.9 -2559.3,809.6 -5337.2,515.8 -7871.7,1431.4 -1029,363.6 -2024,1051.1 -2419.3,2108.2 -551.6,1496.1 -298.9,3346.7 862.5,4492.7 1132.3,1140 2766.9,1579 4321,1736.1 v -0.1"
         style="fill:#81cd39;fill-opacity:1;fill-rule:nonzero;stroke:none"
         id="path16" /></g></g></svg>
